<?xml version="1.0" standalone="no"?>
<!DOCTYPE svg PUBLIC "-//W3C//DTD SVG 20010904//EN"
 "http://www.w3.org/TR/2001/REC-SVG-20010904/DTD/svg10.dtd">
<svg version="1.0" xmlns="http://www.w3.org/2000/svg"
 width="96.000000pt" height="96.000000pt" viewBox="0 0 96.000000 96.000000"
 preserveAspectRatio="xMidYMid meet">
<metadata>
Created by potrace 1.14, written by Peter Selinger 2001-2017
</metadata>
<g transform="translate(0.000000,96.000000) scale(0.100000,-0.100000)"
fill="#000000" stroke="none">
<path d="M282 858 c-7 -7 -12 -20 -12 -30 0 -14 -8 -18 -42 -18 -46 -1 -69
-13 -85 -45 -7 -16 -12 -586 -4 -627 0 -5 10 -17 21 -28 19 -19 33 -20 314
-20 162 0 302 3 311 6 38 15 42 48 40 359 -2 165 -3 303 -4 308 -4 25 -44 47
-86 47 -37 0 -45 3 -45 18 0 28 -20 42 -60 42 -40 0 -60 -14 -60 -42 0 -16
-10 -18 -90 -18 -80 0 -90 2 -90 18 0 10 -5 23 -12 30 -16 16 -80 16 -96 0z
m76 -69 c2 -38 0 -47 -15 -51 -33 -9 -43 2 -43 46 0 49 6 58 35 54 16 -2 21
-12 23 -49z m300 2 c4 -47 -7 -62 -39 -54 -15 4 -19 15 -19 47 0 49 6 58 35
54 16 -2 21 -12 23 -47z m-388 -35 c0 -29 24 -50 59 -51 34 -1 61 22 61 52 0
22 2 23 90 23 88 0 90 -1 90 -24 0 -44 54 -67 98 -40 13 9 22 24 22 39 0 22 4
25 39 25 51 0 67 -22 65 -86 -1 -27 -2 -52 -3 -56 -1 -5 -140 -8 -311 -8 -171
0 -310 3 -311 8 -1 4 -2 29 -3 55 -2 65 14 87 65 87 34 0 39 -3 39 -24z m-75
-368 c0 -159 3 -209 14 -221 12 -15 44 -17 272 -17 257 0 259 0 272 23 11 17
14 66 13 215 -1 185 4 232 22 205 4 -6 7 -108 6 -227 0 -160 -4 -219 -14 -230
-11 -14 -52 -16 -300 -16 -251 0 -289 2 -301 16 -10 12 -13 68 -14 233 -1 119
1 220 3 224 2 4 9 6 15 4 8 -2 11 -66 12 -209z m540 42 c0 -91 -1 -171 -3
-178 -3 -9 -63 -12 -253 -12 -230 0 -249 1 -250 18 -4 46 -4 328 -1 335 2 4
117 6 255 5 l252 -3 0 -165z"/>
<path d="M355 515 c-31 -30 -32 -69 -4 -115 44 -72 110 -110 157 -91 99 41
155 164 96 210 -35 27 -66 27 -100 -2 l-27 -23 -23 23 c-30 30 -69 29 -99 -2z"/>
</g>
</svg>
